<?xml version="1.0" encoding="UTF-8"?>
<svg id="Ebene_2" data-name="Ebene 2" xmlns="http://www.w3.org/2000/svg" viewBox="0 0 1623.2 1853.35">
  <defs>
    <style>
      .cls-1 {
        fill: #b1b0d1;
      }

      .cls-2 {
        fill: #f6f6f6;
      }

      .cls-3 {
        fill: none;
        stroke: #1d1d1b;
        stroke-miterlimit: 10;
      }

      .cls-4 {
        fill: #29235c;
      }

      .cls-5 {
        fill: #2d1c6f;
      }

      .cls-6 {
        fill: #281791;
      }

      .cls-7 {
        fill: #262051;
      }

      .cls-8 {
        fill: #c0c3e1;
      }

      .cls-9 {
        fill: #2d1c9b;
      }

      .cls-10 {
        fill: #1d1d1b;
      }
    </style>
  </defs>
  <g id="Bluwee">
    <g id="Ohren">
      <path class="cls-4" d="M464.09,174.53c-4.83-5.82-11.82-13.91-20.74-23.09-7.65-7.87-18.92-18.81-45.78-40.5-21.06-17.01-34.67-27.99-55.17-42.07-24.36-16.71-42.75-27-61.63-37.57,0,0-30.89-17.28-56.15-25.43-7.56-2.44-12.49-2.68-19.57-4.89-.89-.28-3.28-1.05-6.46-.98-.97,.02-3.21,.09-5.48,.98-3.62,1.42-5.7,4.32-6.85,6.07-9.54,14.46-12.52,25.63-12.52,25.63-5.52,20.69-8.22,35.8-8.22,35.8-1.64,9.18-3.96,22.34-6.07,40.5-.41,3.55-2.1,18.34-3.33,39.33-1.13,19.36-2.24,38.29-1.17,63.59,.4,9.53,1.45,27.78,4.7,50.67,2.6,18.36,5.57,32.24,6.65,37.17,3.37,15.37,8.49,35.03,16.43,57.52,7.15-3.79,18.34-9.8,31.89-17.41,114.49-64.36,104.41-78.93,158.54-99.46,26.87-10.19,57.12-17.13,79.3-46.43,5.81-7.67,9.47-14.76,11.61-19.43Z"/>
      <path class="cls-8" d="M389.35,200.35c-5.3-4.82-12.44-11.22-21-18.65-8.67-7.52-21.41-18.55-38.61-32.09-4.65-3.66-12.85-10.04-23.35-17.74-12.72-9.33-19.6-13.85-22.17-15.52-4.03-2.62-13.59-8.72-26.35-14.35-2.78-1.22-9.04-3.89-17.22-3.91-5.75-.01-8.32,1.33-9.52,2.09-3.84,2.42-5.42,6.32-6.52,9.39-4.34,12.13-5.38,23.13-5.58,25.34-1.53,17.19-2.29,25.78-2.35,27.1-.61,13.91-.2,24.19,.39,39.13,.11,2.68,.6,14.82,1.86,31.6,1.29,17.15,1.98,26.35,3.72,38.32,1.39,9.55,3.69,22.56,7.7,37.96,12.59-2.83,30.69-7.84,51.26-17.09,26.61-11.96,21.93-15.09,66.26-41.48,26.69-15.89,43.96-24.02,44.61-38.35,.22-4.93-1.59-9.05-3.13-11.74Z"/>
      <path class="cls-4" d="M824.28,177.46c4.32-5.11,10.2-11.86,17.41-19.57,5.56-5.94,19.46-20.5,39.39-37.89,18.36-16.02,33.09-26.79,45.39-35.74,8.42-6.13,29.17-20.97,57.52-38.09,8.62-5.2,25.07-14.92,46.43-25.57,14.55-7.25,5.04-1.8,41.09-16.04,0,0,6.33-2.5,18.52-3.52,3.41-.29,6.76-.36,9.91,1.57,1.54,.94,2.92,2.29,5.35,6.39,3.16,5.34,4.77,9.75,6,13.04,4,10.68,3.5,8.28,5.87,15,1.54,4.35,3.44,10.96,7.17,24,2.43,8.46,2.88,10.22,3.39,12.78,1.14,5.69,1.24,8.59,2.09,15.26,1.14,8.97,1.9,11.19,2.87,17.74,.83,5.58,1.21,10.33,1.7,26.87,.46,15.81,.7,25.14,.65,39.13-.01,3.68-.09,18.97-.91,39.13-.49,11.87-.75,17.98-1.57,26.74-.78,8.35-1.71,14.81-3.52,27.39-1.84,12.74-3,20.97-5.09,32.22-2.99,16.13-4.49,24.19-7.57,33.91-3.5,11.04-7.47,19.79-10.43,25.7-80.58-5.94-138.53-29.97-171.52-46.83-63.34-32.36-83.21-63.05-90-74.74-13.11-22.57-18.06-44.24-20.15-58.89Z"/>
      <path class="cls-8" d="M898.83,202.7c5.84-7.41,11.32-12.54,15.26-15.85,4.46-3.75,6.04-4.43,13.57-10.5,4.24-3.42,4.74-4.01,13.17-11.22,7.75-6.62,11.62-9.92,16.96-14.22,3.35-2.7,8.93-7.18,16.43-12.65,5.92-4.32,5.54-3.79,14.48-10.17,9.11-6.51,9.97-7.4,15-10.7,2.06-1.35,5.77-3.55,13.17-7.96,12.5-7.43,14.45-8.43,17.61-9.52,6.04-2.09,10.49-2.44,13.17-2.48,3.98-.06,7.34-.11,10.57,1.7,3.1,1.73,5.35,4.77,7.96,12.52,3.14,9.34,3.89,16.86,4.57,23.48,2.43,23.74,2.23,18.91,2.61,24.52,1.48,21.77,.72,38.63-.13,57.39-.66,14.63-1.54,24.45-2.35,33.39-.78,8.6-1.44,14.41-2.48,21-.78,4.99-1.66,10.47-3.39,17.48-1.49,6.01-3.53,12.83-6.39,20.22-34.37-8.09-62.4-17.92-83.09-26.22-54.65-21.91-66.15-36.32-71.61-48.52-5.34-11.95-5.69-23.57-5.09-31.7Z"/>
    </g>
    <g id="Body">
      <path class="cls-6" d="M993.78,1307.22c7.22-4.91,16.61-11.11,27.78-18,8.09-5,22.7-13.97,41.87-24,17.4-9.1,30.24-14.72,47.87-22.43,17.65-7.72,32.69-14.3,53.61-21.78,11.83-4.23,25.19-8.47,51.91-16.96,10.48-3.33,19.12-6.03,24.91-7.83,8.96,3.93,22.79,9.51,40.17,14.48,57.91,16.57,81.9,5.47,116.35,13.96,51.12,12.6,100.54,62.25,110.22,113.22,2.47,13.03,.72,17.56-16.43,126.78-3.69,23.46-6.64,42.55-8.48,54.52-7.77,10.34-14.7,18.36-19.7,23.87-3.48,3.84-3.81,4.02-19.17,19.96-14.56,15.1-14.74,15.43-18.13,18.65-8.85,8.4-16.32,14.39-21.65,18.65-6.14,4.9-6.32,4.75-19.17,14.48-18.62,14.08-18.55,14.62-26.09,19.83-6.49,4.48-12.85,8.2-25.57,15.65-9.54,5.59-18.46,10.81-30.65,17.09-8.07,4.15-7.32,3.49-22.57,11.09-16.5,8.22-16.73,8.68-24.39,12.26-7.84,3.67-14.62,6.36-28.17,11.74-14.11,5.6-21.52,8.54-32.22,12.13-3.74,1.25-10.8,3.4-24.91,7.7-13.5,4.11-20.25,6.16-25.3,7.57-11.88,3.3-20.74,5.34-29.87,7.43-18.42,4.23-32.15,6.77-35.09,7.3-10.59,1.94-19.76,3.38-27,4.43-44.13-16.26-88.26-32.52-132.39-48.78-2.61-74.61-5.22-149.22-7.83-223.83,26.7-56.39,53.39-112.78,80.09-169.17Z"/>
      <path class="cls-9" d="M896.22,1069.18c5.27,17.04,9.51,31.88,12.78,43.83,5.04,18.37,8.48,32.42,10.96,42.52,4.06,16.57,6.65,27.16,9.39,40.43,2.86,13.85,6.32,32.66,9.2,55.43,2.94,2.01,6.94,4.84,11.54,8.41,4.4,3.42,9.99,7.75,16.24,13.89,6.18,6.06,10.09,11.02,14.67,16.83,4.19,5.31,8.98,11.38,14.28,20.15,5.93,9.81,9.37,17.83,11.35,22.5,1.4,3.29,5.8,13.92,9.59,28.57,1.11,4.29,3.54,14.24,5.22,27.39,.53,4.16,2.72,22.24,1.17,47.48-1.2,19.54-4.04,33.76-7.7,52.04-3.19,15.93-6.49,29.07-9,38.35-5.17,6.15-12.1,14.55-20.02,24.72-6.85,8.79-24.84,32.24-47.35,67.3-16.62,25.89-24.93,38.83-27,45.59-8.1,26.41-.56,39.29-11.35,66.91-6.81,17.44-11.08,28.38-20.15,32.28-30.53,13.14-65.98-74.6-154.17-110.02-11.36-4.56-77.43-31.1-143.48-7.3-35.52,12.79-100.57,50.78-149.74,88.7-8.13,6.27-24.09,18.91-42.78,16.17-23.3-3.41-37.56-28.74-44.87-41.74-18.77-33.36-5.53-40.7-24.52-88.7-8.72-22.04-16.91-34.14-24-63.13-3.11-12.71-4.72-23.42-5.61-30.65-2.76-6.03-6.6-15.29-9.91-27-4.61-16.31-5.89-29.32-7.57-47.09-1.25-13.28-2.08-22.12-1.83-34.7,.29-14.22,1.79-24.63,4.43-42.91,2.54-17.55,4.28-23.95,4.96-26.35,3.34-11.84,7.36-20.42,10.04-26.09,7.03-14.84,14.26-25.18,16.7-28.57,4.42-6.16,11.35-14.98,21.13-24.39,9.03-8.69,17.85-15.34,25.43-20.35,1.1-6.96,2.63-16.37,4.57-27.52,1.72-9.91,2.89-16.63,4.7-25.7,2.57-12.92,4.84-22.62,6.78-30.91,3.69-15.71,6.83-27.57,7.83-31.3,1.49-5.59,4.8-17.8,9.52-33.39,3.26-10.75,6.29-20.16,8.87-27.91,9.78-5.74,19.57-11.48,29.35-17.22,41.04-1.17,82.09-2.35,123.13-3.52h217.17c43.35,5.65,86.7,11.3,130.04,16.96Z"/>
      <path class="cls-1" d="M889.63,1071c-4.92,12.33-9.49,22.94-13.3,31.5-3.6,8.07-8.25,18.46-15.07,31.89-4.57,9.01-8.22,15.64-9.2,17.41-7.57,13.71-13.84,23.66-15.46,26.22-3.56,5.61-6.81,10.39-13.3,19.96-5.44,8-5.9,8.52-12.91,18.78-8.75,12.82-8.47,12.68-12.13,17.8-7.95,11.15-8.99,11.43-13.7,18.39-2.59,3.83-3.74,5.91-13.11,23.48-8.96,16.8-13.47,25.27-15.26,28.96-3.61,7.46-7.39,15.29-11.54,26.02-4.33,11.2-6.84,19.78-9.59,29.15-4.1,14.01-6.55,24.72-7.24,27.78-2.77,12.3-4.34,21.77-5.67,29.93-1.78,10.86-2.82,19.02-3.13,21.52-.79,6.33-2.12,17.08-2.74,29.15-.3,5.82-.38,10.94-.39,11.74-.02,1.22-.06,4.73,0,9.78,.09,7.13,.34,12.49,.39,13.7,.41,9.36,.27,21.21,0,44.41-.19,15.83-.4,22.96-.2,36.78,.06,4.12,.14,7.51,.2,9.78,3.85,7.83,7.7,15.65,11.54,23.48,1.24,16.89,2.48,33.78,3.72,50.67-1.17,10.63-2.35,21.26-3.52,31.89-5.53,18.12-15.35,23.78-18.78,25.43-3.07,1.48-6.08,2.21-11.54,3.52-5.89,1.42-11.79,2.34-22.89,3.13-5.02,.36-14.9,.97-28.57,.98-6.41,0-15.18,0-26.8-.78-9.7-.65-16.75-1.53-21.72-2.15-10.2-1.28-15.3-1.93-16.63-2.74-7.31-4.47-8.56-18.17-10.76-45.39-.33-4.1-1.17-14.49-2.35-29.35,.59-12.85,1.17-25.7,1.76-38.54,1.5-7.17,3-14.35,4.5-21.52-.14-7.59-.3-18.13-.39-30.72-.08-11.58-.17-24.27,0-40.7,.16-15.38,.45-24.32,.39-42.46-.02-6.18-.08-11.34-.39-18-.51-10.75-1.42-19.59-2.15-25.63-1.47-12.1-3.2-20.94-5.09-30.52-1.85-9.39-3.5-17.72-6.46-28.57-3.06-11.2-5.88-19.1-9.78-29.93-5.05-14.01-8.99-24.96-15.65-38.93-5.5-11.54-10.26-19.68-16.04-29.54-7.55-12.86-14.06-22.87-24.07-37.76-23.81-35.45-25.45-36.15-39.72-58.11-13.99-21.54-22.29-36.07-26.61-43.83-11.81-21.2-16.94-33.09-19.57-39.52-4.63-11.32-7.83-21.12-9.98-28.37,23.48-10.63,46.96-21.26,70.43-31.89,54.78-.39,109.57-.78,164.35-1.17h178.43c25.89,10.96,51.78,21.91,77.67,32.87Z"/>
      <path class="cls-5" d="M429.26,1596.92c.77-.14,2.57-.46,3.65-1.96,.7-.98,.95-2.03,.91-3.39-.01-.61-.04-1.6-.07-2.8-.12-5.09-.19-8.84-.2-9.26-.1-4.86-.53-14.9-.98-22.11-.75-12.08-1.56-16.34-2.74-28.76-1-10.47-.59-9.19-2.35-35.8-1.49-22.56-1.86-24.66-2.74-40.6-.88-15.99-1.11-24.68-1.17-27.49-.19-8.15-.2-14.15-.2-25.83,0-6.48,.03-13.55,.2-30.72,.25-26.07,.32-23.36,.39-35.8,.09-15.4,.03-28.91,0-37.17-.03-6.75-.07-12.44-.1-16.63-.02-1.97-2.48-6.07-5.67-6.26-2.42-.14-4.98,2.07-6.36,5.48-.06,4.62-.13,10.65-.2,17.71-.03,2.62-.12,12.83-.2,26.8-.06,11.92-.09,22.12-.1,29.84-.02,20.2,.06,19.34,0,31.21-.07,14.57-.21,16.5-.2,28.37,0,6.45,.01,13.85,.2,23.28,.18,9.31,.56,21.74,1.37,36.1,.91,16.06,1.24,14.68,2.74,36.98,1.54,22.91,1.06,22.42,2.35,37.57,.81,9.56,1.8,19.14,2.45,28.37,.08,1.14,.52,7.47,1.17,16.04,.08,1.08,.15,1.96,.2,2.54,.21,.51,1.16,2.71,3.62,3.82,1.78,.8,3.41,.6,4.01,.49Z"/>
      <path class="cls-5" d="M862.7,1596.21c-.77-.14-2.57-.46-3.65-1.96-.7-.98-.95-2.03-.91-3.39,.01-.61,.04-1.6,.07-2.8,.12-5.09,.19-8.84,.2-9.26,.09-4.86,.53-14.9,.98-22.11,.75-12.08,1.56-16.34,2.74-28.76,1-10.47,.59-9.19,2.35-35.8,1.49-22.56,1.86-24.66,2.74-40.6,.88-15.99,1.11-24.68,1.17-27.49,.19-8.15,.2-14.15,.2-25.83,0-6.48-.03-13.55-.2-30.72-.25-26.07-.32-23.36-.39-35.8-.09-15.4-.03-28.91,0-37.17,.03-6.75,.07-12.44,.1-16.63,.02-1.97,2.48-6.07,5.67-6.26,2.42-.14,4.98,2.07,6.36,5.48,.06,4.62,.13,10.65,.2,17.71,.03,2.62,.12,12.83,.2,26.8,.06,11.92,.09,22.12,.1,29.84,.02,20.2-.06,19.34,0,31.21,.07,14.57,.21,16.5,.2,28.37,0,6.45-.01,13.85-.2,23.28-.18,9.31-.56,21.74-1.37,36.1-.91,16.06-1.24,14.68-2.74,36.98-1.54,22.91-1.06,22.42-2.35,37.57-.81,9.56-1.8,19.14-2.45,28.37-.08,1.14-.52,7.47-1.17,16.04-.08,1.08-.15,1.96-.2,2.54-.21,.51-1.16,2.71-3.62,3.82-1.78,.8-3.41,.6-4.01,.49Z"/>
      <ellipse class="cls-7" cx="296.48" cy="1656.92" rx="100.44" ry="139.6" transform="translate(-734.6 326.45) rotate(-27.63)"/>
      <ellipse class="cls-7" cx="1000.35" cy="1656.18" rx="139.6" ry="100.44" transform="translate(-930.88 1774.38) rotate(-62.37)"/>
      <path class="cls-4" d="M716.48,1594.57c3.37,1.14,8.35,2.69,14.48,4.04,11.57,2.56,21.22,2.92,40.04,3.52,11.98,.38,18.12,.56,25.57,0,6.17-.47,6.2-.82,19.7-2.35,15.37-1.74,17.22-1.5,24.39-2.74,4.79-.83,11.74-2.28,20.09-4.96,.19,8.2,.25,15.13,.26,20.35,.03,11.9-.17,18.77-.26,21.52-.28,8.6-.62,12.51-.78,14.22-.53,5.66-1.25,10.35-1.83,13.7,.17,4.65,.35,9.3,.52,13.96l.13,25.57c2.74,2.47,6.97,6.03,12.52,9.78,6.8,4.59,8.17,4.46,14.74,8.87,5.94,3.99,9.95,7.56,16.57,13.43,6.13,5.45,9.19,8.17,11.28,10.86,2.28,2.94,7.65,10.02,9.39,20.45,.45,2.7,.46,4.8,.49,9,.05,8.47,.11,17.37-3.55,27.78-.86,2.44-2.85,7.59-6.65,13.43-3.52,5.41-6.98,8.92-9.07,11.02-1.53,1.54-6.22,6.13-13.4,10.76-1.71,1.11-7.24,4.58-15.16,7.73-7.38,2.93-13.3,4.17-17.32,4.99-6.67,1.36-11.49,1.75-20.25,2.45-4.5,.36-10.58,.83-18.68,.88-9.49,.06-16.65-.5-21.42-.88-6.73-.54-12.36-.99-19.96-2.35-10.25-1.83-17.79-4.2-20.25-4.99-5.61-1.81-11.66-3.76-19.08-7.73-5.98-3.2-11.64-6.22-17.41-12.23-6.47-6.73-9.51-13.48-11.54-18.1-4.23-9.63-5.26-17.81-5.77-22.11-.64-5.39-.57-9.32-.49-14.38,.07-4.29,.35-10.31,2.35-25.43,1.89-14.28,2.19-13.03,3.13-21.52,1.82-16.44-.03-14.58,1.76-25.34,0,0,3.08-18.5,2.74-24.26-.02-.25-.12-1.86-.15-4.06-.03-2.04,.03-3.54,.05-4.16,.12-3.69-.04-6.73-.1-9.29-.13-5.23,.04-11.97,.39-17.32,.6-9.19,1.37-8.92,1.96-18.98,.08-1.41,.34-6.08,.39-12.23,.03-3.65-.02-6.83-.1-9.39,.1-1.17,.2-2.35,.29-3.52Z"/>
      <path class="cls-4" d="M573.53,1595.08c-3.37,1.14-8.35,2.69-14.48,4.04-11.57,2.56-21.22,2.92-40.04,3.52-11.98,.38-18.12,.56-25.57,0-6.17-.47-6.2-.82-19.7-2.35-15.37-1.74-17.22-1.5-24.39-2.74-4.79-.83-11.74-2.28-20.09-4.96-.19,8.2-.25,15.13-.26,20.35-.03,11.9,.17,18.77,.26,21.52,.28,8.6,.62,12.51,.78,14.22,.53,5.66,1.25,10.35,1.83,13.7-.17,4.65-.35,9.3-.52,13.96l-.13,25.57c-2.74,2.47-6.97,6.03-12.52,9.78-6.8,4.59-8.17,4.46-14.74,8.87-5.94,3.99-9.95,7.56-16.57,13.43-6.13,5.45-9.19,8.17-11.28,10.86-2.28,2.94-7.65,10.02-9.39,20.45-.45,2.7-.46,4.8-.49,9-.05,8.47-.11,17.37,3.55,27.78,.86,2.44,2.85,7.59,6.65,13.43,3.52,5.41,6.98,8.92,9.07,11.02,1.53,1.54,6.22,6.13,13.4,10.76,1.71,1.11,7.24,4.58,15.16,7.73,7.38,2.93,13.3,4.17,17.32,4.99,6.67,1.36,11.49,1.75,20.25,2.45,4.5,.36,10.58,.83,18.68,.88,9.49,.06,16.65-.5,21.42-.88,6.73-.54,12.36-.99,19.96-2.35,10.25-1.83,17.79-4.2,20.25-4.99,5.61-1.81,11.66-3.76,19.08-7.73,5.98-3.2,11.64-6.22,17.41-12.23,6.47-6.73,9.51-13.48,11.54-18.1,4.23-9.63,5.26-17.81,5.77-22.11,.64-5.39,.57-9.32,.49-14.38-.07-4.29-.35-10.31-2.35-25.43-1.89-14.28-2.19-13.03-3.13-21.52-1.82-16.44,.03-14.58-1.76-25.34,0,0-3.08-18.5-2.74-24.26,.02-.25,.12-1.86,.15-4.06,.03-2.04-.03-3.54-.05-4.16-.12-3.69,.04-6.73,.1-9.29,.13-5.23-.04-11.97-.39-17.32-.6-9.19-1.37-8.92-1.96-18.98-.08-1.41-.34-6.08-.39-12.23-.03-3.65,.02-6.83,.1-9.39-.1-1.17-.2-2.35-.29-3.52Z"/>
      <path class="cls-6" d="M1235.87,1198.11c14.77-5.62,28.92-10.9,42.39-15.85,20.29-7.45,26.71-9.63,40.83-15,18.74-7.13,32.73-12.96,42-16.83,22.45-9.36,40.36-16.83,63.52-28.17,17.27-8.46,30.08-15.46,43.57-22.83,15.11-8.26,27-14.75,42.91-24.52,19.33-11.87,33.46-21.73,43.04-28.43,11.8-8.26,19.06-13.36,28.83-21.26,10.8-8.73,19.63-16.8,24.91-21.65,6.19-5.68,11.29-10.58,15-14.22,0,6.65,.04,17.41,.13,30.78,.17,23.5,.35,27.75,0,37.43-.47,12.82-.98,10.43-2.48,33.91-1.45,22.62-.99,25.09-2.48,39.39-.95,9.15-1.35,10.28-2.74,23.61-.72,6.9-.74,7.87-2.35,24.52-1.36,14.11-1.84,18.66-2.22,22.04-1.12,10.12-1.68,15.18-2.48,19.7-.95,5.33-1.27,5.68-4.96,21.26-2.19,9.24-2.15,9.45-4.57,19.7-2.03,8.64-2.33,9.62-5.22,21.65-4.48,18.67-3.97,17.07-5.48,22.96-2.5,9.71-4.65,16.98-7.3,25.96-2.54,8.59-4.2,14.18-6.78,21.91-2.01,6-2.5,7.08-6.91,19.57-6.48,18.32-5.63,16.56-7.3,20.87-2.77,7.13-6.45,14.46-13.7,28.83-5.58,11.07-8.4,16.67-12.91,24.78-3.2,5.77-8.08,14.5-15.13,25.43-4.6,7.13-3.9,5.55-12.39,18.39-5.11,7.73-6.83,10.52-10.17,14.74-4.66,5.88-9.07,10.23-12.13,13.04-1.54-5.5-3.43-12.63-5.35-21-.91-3.95-3.85-17.03-6.52-34.57-1.21-7.92-2.11-16.15-3.91-32.61-1.44-13.13-1.61-16.17-1.57-20.09,.05-3.91,.28-5.81,2.48-24.13,2.06-17.19,2.21-18.42,2.74-21.65,1.05-6.42,2.19-13.22,4.7-21.91,1.65-5.72,3.36-10.43,4.7-13.83-1.73,1.32-4.33,3.25-7.57,5.48-4.88,3.36-8.32,5.41-13.57,8.61-4.97,3.03-8.36,5.15-15.13,9.39-13.71,8.58-12.8,8.37-18.39,11.61-8.05,4.66-14.58,7.78-18.52,9.65-2.29,1.09-8.59,4.04-17.09,7.43-14.99,5.99-26.7,9.3-29.35,10.04-6.88,1.92-13.41,3.75-22.57,5.22-10.55,1.69-18.9,2-25.17,2.22-7.9,.27-14.62,.11-19.7-.13,1-3.18,2.73-8.15,5.48-13.96,5.25-11.09,8.89-13.95,14.87-25.57,4.27-8.31,2.76-7.52,7.7-17.61,2.05-4.19,4.01-7.8,13.3-23.22,3.92-6.51,5.89-9.7,13.43-22.04,12.57-20.55,13.8-22.6,17.09-27,4.4-5.88,10.34-13.11,12-15.13,3.37-4.1,6.25-7.48,8.35-9.91-3.66-.09-9.64-.24-17.09-.39-12.91-.27-14.35-.24-17.87-.59-6.89-.69-11.75-1.84-20.74-3.98-4.02-.96-10.51-2.51-18.91-5.22-4.33-1.39-11.89-3.97-21.13-7.96-7.32-3.16-6.18-3.1-21.39-10.3-10.82-5.13-13.19-6.01-18.39-9-6.31-3.63-11.18-7.14-14.35-9.59Z"/>
    </g>
    <g id="Kopf">
      <path class="cls-8" d="M63.2,753.85c8.88-11.19,22.06-27.69,38.15-47.54,55.98-69.05,83.97-103.57,98.09-117.39,18.56-18.18,54.69-43.52,253.04-44.87,138.69-.94,198.51,10.92,336,15.13,88.35,2.7,138.31-25.87,214.43-1.57,36.06,11.51,83.93,26.8,120.52,69.39,20.65,24.04,40.7,60.26,74.61,98.09,23.83,26.59,29.09,32.28,29.09,32.28,16.28,17.64,21.24,22.32,28.96,32.09,7.04,8.92,15.68,21.2,24.07,37.17-2.45,5.55-6.38,13.18-12.52,21.33-8.49,11.26-17,17.89-24.26,23.48-9.54,7.33-21.31,16.38-39.33,22.7-9.07,3.18-23.95,7.14-43.04,6.65,4.56,2.77,10.35,6.77,16.43,12.33,5.69,5.19,12.26,12.33,18.2,21.72,3.07,4.86,6.7,11.48,9.78,19.76-5.68,1.59-14.32,4.05-24.85,7.24-9.92,3.01-14.64,4.58-30.91,9.78-26.13,8.35-24.94,7.8-37.57,11.93-16.93,5.54-25.4,8.31-35.02,11.93-9.34,3.51-13.37,5.38-41.67,18-43.11,19.23-48.55,21.5-54.39,23.87-7.09,2.87-20.58,8.32-38.54,14.67-13.66,4.83-15.52,5.1-30.91,10.57-20.1,7.14-21.58,8.33-35.61,13.11-15.09,5.14-26.7,8.29-36.59,10.96-4.7,1.27-22.17,5.93-45.98,10.76-18.11,3.68-31.28,5.71-50.09,8.61-19.92,3.07-29.88,4.61-43.04,5.87-19.01,1.82-33.5,2.15-42.85,2.35-22.55,.47-41.31-.33-54.39-1.17-23.38-1.5-40.79-3.92-53.22-5.67-34.3-4.84-60.77-10.8-72.98-13.7-24.5-5.81-41.83-11.17-67.7-19.17-16.67-5.16-35.56-11.03-60.46-20.15-29.19-10.7-51.16-20.18-58.7-23.48-27.26-11.92-26.02-12.83-50.09-23.09-26.26-11.19-47.46-18.5-60.26-22.89-20.2-6.92-35.76-11.53-45.78-14.48-19.79-5.83-37.17-10.4-51.26-13.89,2.28-9.05,5.76-16,8.8-20.93,5.01-8.12,10.37-13.21,16.43-18.98,4.67-4.44,10.57-9.47,17.8-14.48-4.95,.07-11.3-.14-18.59-1.17-13.03-1.84-22.66-5.38-26.41-6.85-14.85-5.82-24.69-13.33-30.72-18-11.42-8.86-19.08-17.64-23.28-22.89-8.43-10.54-13.98-20.66-17.61-28.57,5.67-10.72,11.25-19.23,15.65-25.43,3.65-5.14,8.46-11.91,15.85-19.96,5.1-5.56,9.77-9.92,17.41-18.98,2.27-2.69,4.09-4.95,5.28-6.46Z"/>
      <path class="cls-9" d="M652.5,157.11c-18.57-.08-33.82,.05-49.3,.39-25.37,.56-35.08,1.36-39.72,1.76-8.56,.74-15.64,1.58-28.57,3.13-10.92,1.31-16.38,1.95-23.09,2.93-8.9,1.31-20.77,3.08-35.22,6.46-7.64,1.79-15.92,4.26-32.48,9.2-15.45,4.61-23.34,6.98-31.5,9.98-13.77,5.07-23.94,9.81-27.59,11.54-4.83,2.29-10.39,5.25-21.52,11.15-12.19,6.47-18.29,9.71-25.24,13.7-6,3.44-14.9,8.58-25.83,15.85-8.47,5.64-15.23,10.74-28.76,20.93-12.41,9.35-18.61,14.03-24.85,19.17-6.84,5.64-14.63,12.77-29.93,26.8-12.85,11.79-19.35,17.76-22.89,21.52-6.46,6.87-6.75,8.03-23.28,28.57-15.98,19.85-17.15,20.56-22.89,28.76-3.71,5.3-7.63,11.62-15.46,24.26-8.77,14.16-8.81,14.74-16.43,27-7.45,11.98-7.81,12.06-17.41,27.39-5.45,8.7-5.39,8.76-13.11,21.13-11.72,18.78-14.16,22.32-15.65,24.46-7.02,10.03-12.9,17.17-15.07,19.76-3.76,4.5-9.19,10.97-17.02,18.59-9.38,9.13-17.28,15.1-24.26,20.35-6.6,4.96-15.11,10.94-25.43,17.22,1.01,3.22,2.6,7.67,5.09,12.72,1.33,2.7,3.7,7.15,10.57,16.63,6.44,8.9,9.67,13.35,14.48,18.39,1.61,1.69,8.69,9,19.76,16.63,5.61,3.87,10.68,6.74,14.67,8.8-7.25,.04-14.9,.28-22.89,.78-8.68,.55-16.91,1.36-24.65,2.35,1.25,10.53,2.83,19.19,4.11,25.43,2.08,10.12,3.17,15.31,5.67,21.33,4.03,9.69,9.09,16.13,12.91,20.93,4.58,5.75,11.72,13.51,22.11,20.93,3.87-3.97,9.67-9.76,17.02-16.43,11.94-10.84,21.49-18.17,34.04-27.78,11.75-9,20.9-15.52,27-19.76,7.94-5.52,12.65-8.79,19.57-12.91,7.62-4.55,9.48-5.1,22.11-11.93,17.48-9.46,16.02-9.53,23.87-13.3,9.43-4.54,16.49-6.81,29.93-11.15,14.11-4.55,21.17-6.83,31.11-8.8,18.08-3.59,32.33-3.57,40.5-3.52,14.51,.09,26.77,.17,42.26,4.5,14.63,4.09,24.48,9.82,37.17,17.22,18.48,10.76,31.12,21.53,36.39,26.22,12.3,10.92,20.08,20.31,28.96,31.11,10.43,12.69,17,22.35,30.13,41.67,14.33,21.08,14.53,22.83,27,40.5,7.7,10.92,6.63,8.84,21.13,28.96,14.21,19.71,16.25,23.1,23.28,31.7,10.31,12.59,18.82,21.04,21.72,23.87,9.58,9.36,16.27,15.91,26.8,22.7,8.92,5.75,18.23,11.75,32.09,14.48,4.77,.94,20.08,3.77,37.37-2.15,3.77-1.29,13.96-5.17,36.98-27.98,11.79-11.68,22.25-23.69,32.67-37.17,14.23-18.41,23.93-33.82,36.39-53.61,12.35-19.62,13.89-23.45,24.65-39.33,11.09-16.36,20.08-27.95,23.48-32.28,7.45-9.5,16.35-20.78,29.35-34.24,13.82-14.31,20.81-21.55,32.67-29.15,12.07-7.73,22.35-11.46,34.43-15.85,10.78-3.91,23.22-8.43,40.3-10.76,22.61-3.09,40.31-.57,50.67,.98,18.63,2.79,32.14,7.5,42.46,11.15,16.96,6.01,28.46,12.03,51.46,24.07,18.28,9.57,29.54,15.46,44.61,25.43,6.59,4.36,21.44,14.48,38.93,29.54,11.39,9.81,24.45,22.17,37.96,37.37,5.16-2.98,12.52-7.97,19.57-15.85,6.19-6.92,10.06-14.66,17.8-30.13,8.34-16.66,10.08-23.36,10.76-26.22,1.86-7.86,2.3-14.62,2.35-19.37-6.88-.44-13.8-.89-20.74-1.37-9.05-.62-18.05-1.28-27-1.96,5.12-2.96,11.65-7.12,18.78-12.72,4.95-3.89,11.81-9.33,19.17-17.8,6.37-7.34,10.13-13.5,15.85-22.89,4.52-7.43,7.97-13.86,10.37-18.59-13.02-7.8-22.57-15.67-28.96-21.52-7.98-7.31-13.25-13.52-22.89-24.85-2.87-3.37-10.47-12.4-20.54-25.83-8.2-10.93-10.51-14.73-24.26-34.43-17.07-24.46-15.61-21.59-24.46-34.63-14.72-21.69-14.37-23.12-26.61-40.7-13.52-19.41-24.37-32.62-27-35.8-10.09-12.2-17.86-20.41-28.57-31.7-12.98-13.7-24.62-25.97-41.48-41.09-6.72-6.02-20.41-18-38.93-31.89-11.08-8.31-29.15-21.76-54.39-36.2-26.52-15.17-47.89-23.96-66.91-31.7-15.66-6.37-35.17-14.24-62.02-21.72-25.56-7.12-45.57-10.49-62.61-13.3-15.79-2.61-33.34-5.48-56.74-7.04-11.76-.78-26.62-.85-56.35-.98Z"/>
    </g>
    <g id="Augen_v1" data-name="Augen v1">
      <g id="Auge_rechts" data-name="Auge rechts">
        <ellipse class="cls-2" cx="909.64" cy="701.14" rx="68.03" ry="88.53" transform="translate(-41.21 56.99) rotate(-3.51)"/>
        <ellipse class="cls-10" cx="909.6" cy="700.56" rx="43.23" ry="56.25" transform="translate(-41.17 56.99) rotate(-3.51)"/>
        <circle class="cls-2" cx="883.18" cy="675.25" r="21.68"/>
      </g>
      <g id="Auge_links" data-name="Auge links">
        <ellipse class="cls-2" cx="378.75" cy="702.59" rx="88.53" ry="68.03" transform="translate(-359.77 1005.36) rotate(-83.96)"/>
        <ellipse class="cls-10" cx="378.8" cy="702" rx="56.25" ry="43.23" transform="translate(-359.14 1004.89) rotate(-83.96)"/>
        <circle class="cls-2" cx="356.03" cy="673.49" r="21.68"/>
      </g>
      <line class="cls-3" x1="426.39" y1="693.27" x2="863.09" y2="693.27"/>
      <line class="cls-3" x1="646.04" y1="898.31" x2="646.04" y2="415.18"/>
    </g>
    <g id="Schnauze">
      <path class="cls-4" d="M637.7,974.61c-1.24,1.74-3.06,4.11-5.54,6.68-2.55,2.64-5.6,5.76-9.78,8.02-5.01,2.71-9.54,2.9-15.16,3.13-5.6,.23-11.89,.49-18.68-2.45-6.7-2.89-12.25-8.18-14.97-10.76-4.13-3.93-6-6.7-10.08-7.34-.71-.11-5.12-.83-8.22,2.15-2.81,2.7-2.59,6.56-2.54,7.14,.06,.86,.43,4.1,6.65,9.68,2.97,2.67,5.74,4.44,12.62,8.41,6.8,3.93,10.2,5.89,12.13,6.65,7.75,3.07,14.4,3.15,20.25,3.23,6.44,.08,12.95,.17,20.74-2.54,9.46-3.3,16-9.05,19.96-13.4,2.01,2.45,5.07,5.68,9.39,8.71,5.11,3.58,9.61,5.21,10.66,5.58,6.38,2.24,11.5,2.19,18.98,2.05,7.98-.15,13.06-.24,19.47-2.45,3.37-1.16,7.64-3.88,16.04-9.29,14.55-9.37,16.62-11.8,17.22-15.07,.57-3.14-.13-7.51-3.13-9.68-3.62-2.61-8.59-.6-9.1-.39-2.94,1.24-3.28,2.96-6.85,6.36-3.04,2.9-5.71,4.42-9.78,6.75-3.97,2.27-7.39,4.22-12.33,5.48-4.78,1.22-8.55,1.16-12.13,1.08-6.87-.16-11.75-.27-16.83-3.23-3.85-2.24-6.51-5.36-9.2-8.51-2-2.34-3.48-4.48-4.5-6.07-5.1,.02-10.2,.04-15.29,.07Z"/>
      <path class="cls-10" d="M645.85,896.09c-3.12,.02-10.71,.19-20.35,1.76-6.58,1.07-9.86,1.61-14.09,3.33-3.02,1.23-9.25,3.85-14.87,9.98-3.01,3.29-8.46,9.23-8.9,18.1-.37,7.34,2.89,12.81,4.7,15.85,4.37,7.34,10.36,11.19,14.67,13.89,4.43,2.78,3.96,1.63,18.59,8.71,6.55,3.17,9.74,4.89,13.01,8.22,3.17,3.21,5.05,6.54,6.16,8.9,1.43-2.39,3.74-5.71,7.24-9,1.95-1.83,4.79-4.13,12.62-8.32,9.79-5.23,10.4-4.32,16.53-7.92,5.39-3.17,10.29-6.05,14.48-11.74,1.98-2.69,6.59-8.96,6.46-17.9-.15-10.07-6.21-16.78-8.02-18.78-3.81-4.22-7.85-6.31-11.54-8.22-5.97-3.09-11.01-4.22-14.97-5.09-8.52-1.86-15.09-1.81-21.72-1.76Z"/>
    </g>
  </g>
</svg>