<?xml version="1.0" encoding="UTF-8"?>
<svg id="Ebene_2" data-name="Ebene 2" xmlns="http://www.w3.org/2000/svg" viewBox="0 0 936.87 193.62">
  <defs>
    <style>
      .cls-1 {
        fill: #2d1c9b;
      }
    </style>
  </defs>
  <g id="Ebene_1-2" data-name="Ebene 1">
    <g>
      <path class="cls-1" d="M80.9,193.04c-10.5,0-19.8-2.58-27.9-7.74-8.1-5.16-13.48-12.1-16.15-20.83l2.94-8.81v16.55c0,6.59-1.74,11.62-5.21,15.09s-8.32,5.21-14.55,5.21-11.35-1.74-14.82-5.21c-3.47-3.47-5.21-8.5-5.21-15.09V20.29C0,13.53,1.78,8.46,5.34,5.07,8.9,1.69,13.79,0,20.03,0c6.58,0,11.61,1.69,15.09,5.07,3.47,3.38,5.21,8.46,5.21,15.22v63.28h-2.94c2.67-8.01,8.01-14.51,16.02-19.49,8.01-4.98,17.18-7.48,27.5-7.48,11.57,0,21.63,2.76,30.17,8.28,8.54,5.52,15.22,13.35,20.02,23.5,4.81,10.15,7.21,22.25,7.21,36.31s-2.36,26.26-7.08,36.58c-4.72,10.33-11.44,18.2-20.16,23.63-8.72,5.43-18.78,8.14-30.17,8.14Zm-12.02-29.9c5.69,0,10.72-1.38,15.09-4.14,4.36-2.76,7.74-6.98,10.15-12.68,2.4-5.7,3.6-12.9,3.6-21.63,0-12.99-2.67-22.56-8.01-28.7-5.34-6.14-12.28-9.21-20.83-9.21-5.7,0-10.73,1.33-15.09,4.01-4.36,2.67-7.74,6.85-10.15,12.55-2.4,5.7-3.6,12.82-3.6,21.36,0,13.17,2.67,22.87,8.01,29.1,5.34,6.23,12.28,9.34,20.83,9.34Z"/>
      <path class="cls-1" d="M210.13,193.04c-15.84,0-27.68-4.36-35.51-13.08-7.83-8.72-11.75-21.8-11.75-39.25V20.29c0-6.76,1.78-11.84,5.34-15.22,3.56-3.38,8.45-5.07,14.69-5.07,6.58,0,11.61,1.69,15.09,5.07,3.47,3.38,5.21,8.46,5.21,15.22v118.82c0,7.3,1.56,12.68,4.67,16.15,3.11,3.47,7.25,5.21,12.42,5.21,1.42,0,2.8-.09,4.14-.27,1.33-.18,2.62-.35,3.87-.53,2.85-.17,4.85,.76,6.01,2.8,1.16,2.05,1.74,6.19,1.74,12.42,0,5.17-1.07,9.17-3.2,12.02-2.14,2.85-5.43,4.63-9.88,5.34-1.6,.17-3.56,.35-5.87,.53-2.32,.17-4.63,.27-6.94,.27Z"/>
      <path class="cls-1" d="M300.1,193.04c-11.04,0-20.2-2.05-27.5-6.14-7.3-4.09-12.68-10.19-16.15-18.29-3.47-8.1-5.21-18.29-5.21-30.57,0-.65,0-35.21,0-35.25,0-.67-.02-1.34,0-2,.05-1.36,.16-1.81,0-2.62-.15-.75-.41-1.25-.6-1.62-.68-1.38-.98-2.69-1.57-5.32-.28-1.25-.43-2.42-.72-4.73-.48-3.86-.74-5.91-.75-8.71,0-1.37,.05-2.98,.23-4.79,.03-1.44,.11-3.31,.29-5.48,.09-1.05,.33-3.65,.88-7.04,.07-.4,.47-2.85,1.34-6,.75-2.75,1.17-3.51,1.92-3.91,.48-.26,1.18-.4,3.85,.33,2.97,.81,4.89,1.73,4.89,1.73,4.54,2.16,7.3,3.91,7.3,3.91,5.63,3.56,10.65,6.74,16.57,12.23,2.4,2.22,4.27,4.2,5.54,5.61,.5,1.65,.99,3.81,1.13,6.36,.09,1.54,.02,2.69,0,2.97-.15,2.81-.19,18.06,0,55.14-.2,1.14-1.17,10.05,4.81,17.36,3.2,3.92,8.19,5.87,14.95,5.87,7.83,0,14.19-2.71,19.09-8.14,4.89-5.43,7.34-12.59,7.34-21.49v-49.37c0-.19-.1-1.23,0-2.62,.1-1.42,.29-3.79,1.67-5.99,.56-.89,1.1-1.4,1.86-2.15,5.73-5.66,5.36-5.34,6.07-5.97,2.35-2.08,5.12-4.54,9.2-7.29,1.96-1.32,5.85-3.81,11.2-6.11,4.81-2.08,7.25-3.1,8.96-2.27,2.53,1.23,3.09,4.95,4.05,11.46,.5,3.37,.58,5.97,.68,9.29,.09,3.03,.18,6.05-.15,10.08-.23,2.84-.33,2.06-1.27,9.1-.19,1.39-.36,2.73-.98,4.45-.51,1.41-.73,1.44-.98,2.47-.35,1.47,0,2.24,0,4.77,0,1.09,0,2.18,0,3.28,0,.06,0,65.73,0,66.65,.13,1.14,.91,9.68-5.27,15.62-3.24,3.12-7.98,4.67-14.22,4.67s-11.13-1.74-14.69-5.21c-3.56-3.47-5.34-8.5-5.34-15.09v-18.16l4.27,10.68c-3.92,9.26-9.52,16.29-16.82,21.09-7.3,4.81-15.93,7.21-25.9,7.21Z"/>
      <path class="cls-1" d="M463.24,192.51c-5.17,0-9.66-1.29-13.48-3.87-3.83-2.58-6.9-6.54-9.21-11.88l-37.65-93.45c-1.96-4.98-2.58-9.39-1.87-13.22,.71-3.83,2.62-6.94,5.74-9.34,3.11-2.4,7.34-3.6,12.68-3.6,4.81,0,8.68,1.11,11.61,3.34,2.94,2.23,5.56,6.45,7.88,12.68l29.1,78.5h-5.61l29.9-81.97c1.6-4.27,3.78-7.43,6.54-9.48,2.76-2.04,6.36-3.07,10.81-3.07s8.05,1.03,10.81,3.07c2.76,2.05,4.85,5.21,6.27,9.48l30.17,81.97h-5.34l29.37-79.57c2.14-5.87,4.89-9.83,8.28-11.88,3.38-2.04,6.94-3.07,10.68-3.07,5.34,0,9.35,1.25,12.02,3.74,2.67,2.5,4.23,5.7,4.67,9.61,.44,3.92-.31,8.19-2.27,12.82l-37.11,93.18c-2.31,5.52-5.38,9.57-9.21,12.15-3.83,2.58-8.41,3.87-13.75,3.87s-9.93-1.29-13.75-3.87c-3.83-2.58-6.81-6.63-8.95-12.15l-32.31-83.3h17.36l-30.71,83.04c-2.32,5.52-5.34,9.61-9.08,12.28s-8.28,4-13.62,4Z"/>
      <path class="cls-1" d="M704.07,193.04c-15.49,0-28.79-2.76-39.92-8.28-11.13-5.51-19.67-13.39-25.63-23.63-5.97-10.23-8.94-22.38-8.94-36.45s2.89-25.32,8.68-35.38c5.78-10.05,13.75-18.02,23.9-23.9,10.15-5.87,21.63-8.81,34.44-8.81,9.79,0,18.46,1.56,26.03,4.67,7.56,3.12,14.1,7.57,19.62,13.35,5.52,5.79,9.7,12.82,12.55,21.09,2.85,8.28,4.27,17.49,4.27,27.63,0,3.38-1.07,5.92-3.2,7.61-2.14,1.69-5.25,2.54-9.34,2.54h-83.57v-20.83h67.02l-4.27,3.74c0-7.3-1.07-13.39-3.2-18.29-2.14-4.89-5.21-8.63-9.21-11.21-4-2.58-8.94-3.87-14.82-3.87-6.59,0-12.19,1.51-16.82,4.54-4.63,3.03-8.19,7.43-10.68,13.22-2.5,5.79-3.74,12.68-3.74,20.69v2.14c0,13.53,3.11,23.5,9.35,29.9,6.23,6.41,15.66,9.61,28.3,9.61,4.27,0,9.12-.53,14.55-1.6,5.43-1.07,10.63-2.76,15.62-5.07,4.27-1.96,7.92-2.58,10.95-1.87,3.02,.71,5.47,2.18,7.34,4.41,1.87,2.23,2.89,4.85,3.07,7.88,.17,3.03-.49,6.01-2,8.94-1.51,2.94-4.05,5.39-7.61,7.34-6.23,3.56-13.17,6.1-20.83,7.61-7.66,1.51-14.95,2.27-21.89,2.27Z"/>
      <path class="cls-1" d="M850.65,193.04c-18.4,2.84-34.36-5.52-39.92-8.28-11.13-5.51-19.67-13.39-25.63-23.63-5.97-10.23-8.94-22.38-8.94-36.45s2.89-25.32,8.68-35.38c5.78-10.05,13.75-18.02,23.9-23.9,10.15-5.87,21.63-8.81,34.44-8.81,9.79,0,18.46,1.56,26.03,4.67,7.56,3.12,14.1,7.57,19.62,13.35,5.52,5.79,9.7,12.82,12.55,21.09,2.85,8.28,4.27,17.49,4.27,27.63,0,3.38-1.07,5.92-3.2,7.61-2.14,1.69-5.25,2.54-9.34,2.54h-83.57v-20.83h67.02l-4.27,3.74c0-7.3-1.07-13.39-3.2-18.29-2.14-4.89-5.21-8.63-9.21-11.21-4-2.58-8.94-3.87-14.82-3.87-6.59,0-12.19,1.51-16.82,4.54-4.63,3.03-8.19,7.43-10.68,13.22-2.5,5.79-3.74,12.68-3.74,20.69v2.14c0,13.53,3.11,23.5,9.35,29.9,6.23,6.41,15.66,9.61,28.3,9.61,4.27,0,9.12-.53,14.55-1.6,3.5-.69,6.91-1.64,10.23-2.85,.62-.22,2.59-1.27,5.39-2.23,1.81-.62,2.96-.88,3.26-.95,1.85-.41,3.24-.52,5.05-.65,2.15-.15,4.1-.18,5.33-.15,8.13,.21,14.48,2.64,14.48,2.64,9.69,3.72,15.21,10.8,16.92,13.06,2.66,3.5,4.66,7.38,6.75,11.45,1.52,2.96,2.67,5.49,3.44,7.28-1.54-.58-3.89-1.37-6.82-2-5.33-1.15-9.72-1.15-13.4-1.12-2.43,.01-1.74,.12-8.67,.33-2.36,.07-4.03,.11-6.69,.24-2.42,.12-3.9,.23-5.08,.31-5.23,.34-8.78,.26-11.25,.29-5.27,.08-9.74,.9-18.68,2.54-10.25,1.88-11.3,2.64-15.61,3.3Z"/>
    </g>
  </g>
</svg>